# xmcd
#
# Track frame offsets: 
#        150
#        18342
#        41330
#        63755
#        82762
#        100410
#        117010
#        134832
#        155217
#        173262
#        192282
#
# Disc length: 2790 seconds
#
# Revision: 2
# Processed by: cddbd v1.5.2PL0 Copyright (c) Steve Scherf et al.
# Submitted via: ExactAudioCopy v0.99pb4
#
DISCID=830ae40b
DTITLE=Cristian Castro - Mis Mejores Momentos
DYEAR=1997
DGENRE=Bolero (Trio)
TTITLE0=No Podras
TTITLE1=Nunca Voy A Olvidarte
TTITLE2=Amor
TTITLE3=Mañana
TTITLE4=Con Tu Amor
TTITLE5=Para Ti
TTITLE6=Agua Nueva
TTITLE7=Morelia
TTITLE8=No Puedo Arrancarte De Mi
TTITLE9=Vuelveme A Querer
TTITLE10=Señora, Por Favor
EXTD=
EXTT0=
EXTT1=
EXTT2=
EXTT3=
EXTT4=
EXTT5=
EXTT6=
EXTT7=
EXTT8=
EXTT9=
EXTT10=
PLAYORDER=
